<svg xmlns="http://www.w3.org/2000/svg" viewBox="0 0 24 24" width="100%" height="100%" fill="currentColor" role="img" aria-label="Instagram">
  <path d="M12 2.16c3.2 0 3.58.01 4.85.07 1.17.05 1.8.25 2.23.41.56.22.96.48 1.38.9.42.42.68.82.9 1.38.16.42.36 1.06.41 2.23.06 1.27.07 1.65.07 4.85s-.01 3.58-.07 4.85c-.05 1.17-.25 1.8-.41 2.23-.22.56-.48.96-.9 1.38-.42.42-.82.68-1.38.9-.42.16-1.06.36-2.23.41-1.27.06-1.65.07-4.85.07s-3.58-.01-4.85-.07c-1.17-.05-1.8-.25-2.23-.41a3.7 3.7 0 0 1-1.38-.9 3.7 3.7 0 0 1-.9-1.38c-.16-.42-.36-1.06-.41-2.23C2.17 15.58 2.16 15.2 2.16 12s.01-3.58.07-4.85c.05-1.17.25-1.8.41-2.23.22-.56.48-.96.9-1.38.42-.42.82-.68 1.38-.9.42-.16 1.06-.36 2.23-.41C8.42 2.17 8.8 2.16 12 2.16zm0 1.44c-3.14 0-3.52.01-4.76.07-1.15.05-1.77.24-2.19.41-.55.21-.94.47-1.35.88-.41.41-.67.8-.88 1.35-.17.42-.36 1.04-.41 2.19-.06 1.24-.07 1.62-.07 4.76s.01 3.52.07 4.76c.05 1.15.24 1.77.41 2.19.21.55.47.94.88 1.35.41.41.8.67 1.35.88.42.17 1.04.36 2.19.41 1.24.06 1.62.07 4.76.07s3.52-.01 4.76-.07c1.15-.05 1.77-.24 2.19-.41.55-.21.94-.47 1.35-.88.41-.41.67-.8.88-1.35.17-.42.36-1.04.41-2.19.06-1.24.07-1.62.07-4.76s-.01-3.52-.07-4.76c-.05-1.15-.24-1.77-.41-2.19a3.63 3.63 0 0 0-.88-1.35 3.63 3.63 0 0 0-1.35-.88c-.42-.17-1.04-.36-2.19-.41-1.24-.06-1.62-.07-4.76-.07zm0 2.45a5.95 5.95 0 1 1 0 11.9 5.95 5.95 0 0 1 0-11.9zm0 9.82a3.86 3.86 0 1 0 0-7.72 3.86 3.86 0 0 0 0 7.72zm7.57-10.06a1.39 1.39 0 1 1-2.78 0 1.39 1.39 0 0 1 2.78 0z"/>
</svg>
